<mxfile host="app.diagrams.net" agent="Mozilla/5.0 (X11; Linux x86_64; rv:132.0) Gecko/20100101 Firefox/132.0" version="24.8.3">
  <diagram name="Page-1" id="RSbDYGZXI58Jxons3QQf">
    <mxGraphModel dx="1514" dy="727" grid="1" gridSize="10" guides="1" tooltips="1" connect="1" arrows="1" fold="1" page="1" pageScale="1" pageWidth="827" pageHeight="1169" math="0" shadow="0">
      <root>
        <mxCell id="0" />
        <mxCell id="1" parent="0" />
        <mxCell id="WK78Aa1rv5Dl_eeuBbqh-10" value="" style="edgeStyle=orthogonalEdgeStyle;rounded=0;orthogonalLoop=1;jettySize=auto;html=1;" edge="1" parent="1" source="WK78Aa1rv5Dl_eeuBbqh-1" target="WK78Aa1rv5Dl_eeuBbqh-2">
          <mxGeometry relative="1" as="geometry" />
        </mxCell>
        <mxCell id="WK78Aa1rv5Dl_eeuBbqh-1" value="&lt;div&gt;index.html&lt;/div&gt;" style="html=1;whiteSpace=wrap;" vertex="1" parent="1">
          <mxGeometry x="280" y="140" width="110" height="50" as="geometry" />
        </mxCell>
        <mxCell id="WK78Aa1rv5Dl_eeuBbqh-11" value="" style="edgeStyle=orthogonalEdgeStyle;rounded=0;orthogonalLoop=1;jettySize=auto;html=1;" edge="1" parent="1" source="WK78Aa1rv5Dl_eeuBbqh-2" target="WK78Aa1rv5Dl_eeuBbqh-3">
          <mxGeometry relative="1" as="geometry">
            <Array as="points">
              <mxPoint x="425" y="265" />
            </Array>
          </mxGeometry>
        </mxCell>
        <mxCell id="WK78Aa1rv5Dl_eeuBbqh-13" style="edgeStyle=orthogonalEdgeStyle;rounded=0;orthogonalLoop=1;jettySize=auto;html=1;exitX=0;exitY=1;exitDx=0;exitDy=0;entryX=0.5;entryY=0;entryDx=0;entryDy=0;" edge="1" parent="1" source="WK78Aa1rv5Dl_eeuBbqh-2" target="WK78Aa1rv5Dl_eeuBbqh-5">
          <mxGeometry relative="1" as="geometry">
            <Array as="points">
              <mxPoint x="370" y="265" />
              <mxPoint x="235" y="265" />
            </Array>
          </mxGeometry>
        </mxCell>
        <mxCell id="WK78Aa1rv5Dl_eeuBbqh-2" value="&lt;div&gt;main.js&lt;/div&gt;" style="html=1;whiteSpace=wrap;" vertex="1" parent="1">
          <mxGeometry x="280" y="240" width="110" height="50" as="geometry" />
        </mxCell>
        <mxCell id="WK78Aa1rv5Dl_eeuBbqh-12" value="" style="edgeStyle=orthogonalEdgeStyle;rounded=0;orthogonalLoop=1;jettySize=auto;html=1;" edge="1" parent="1" source="WK78Aa1rv5Dl_eeuBbqh-3" target="WK78Aa1rv5Dl_eeuBbqh-5">
          <mxGeometry relative="1" as="geometry">
            <Array as="points">
              <mxPoint x="330" y="360" />
              <mxPoint x="330" y="360" />
            </Array>
          </mxGeometry>
        </mxCell>
        <mxCell id="WK78Aa1rv5Dl_eeuBbqh-3" value="&lt;div&gt;router.js&lt;/div&gt;" style="html=1;whiteSpace=wrap;" vertex="1" parent="1">
          <mxGeometry x="370" y="340" width="110" height="50" as="geometry" />
        </mxCell>
        <mxCell id="WK78Aa1rv5Dl_eeuBbqh-14" value="" style="edgeStyle=orthogonalEdgeStyle;rounded=0;orthogonalLoop=1;jettySize=auto;html=1;" edge="1" parent="1" source="WK78Aa1rv5Dl_eeuBbqh-5" target="WK78Aa1rv5Dl_eeuBbqh-6">
          <mxGeometry relative="1" as="geometry" />
        </mxCell>
        <mxCell id="WK78Aa1rv5Dl_eeuBbqh-18" value="" style="edgeStyle=orthogonalEdgeStyle;rounded=0;orthogonalLoop=1;jettySize=auto;html=1;" edge="1" parent="1" source="WK78Aa1rv5Dl_eeuBbqh-5" target="WK78Aa1rv5Dl_eeuBbqh-3">
          <mxGeometry relative="1" as="geometry">
            <Array as="points">
              <mxPoint x="330" y="370" />
              <mxPoint x="330" y="370" />
            </Array>
          </mxGeometry>
        </mxCell>
        <mxCell id="WK78Aa1rv5Dl_eeuBbqh-5" value="&lt;div&gt;«interface»&lt;/div&gt;&lt;b&gt;Component&lt;/b&gt;" style="html=1;whiteSpace=wrap;" vertex="1" parent="1">
          <mxGeometry x="180" y="340" width="110" height="50" as="geometry" />
        </mxCell>
        <mxCell id="WK78Aa1rv5Dl_eeuBbqh-15" value="" style="edgeStyle=orthogonalEdgeStyle;rounded=0;orthogonalLoop=1;jettySize=auto;html=1;" edge="1" parent="1" source="WK78Aa1rv5Dl_eeuBbqh-6" target="WK78Aa1rv5Dl_eeuBbqh-7">
          <mxGeometry relative="1" as="geometry" />
        </mxCell>
        <mxCell id="WK78Aa1rv5Dl_eeuBbqh-16" value="" style="edgeStyle=orthogonalEdgeStyle;rounded=0;orthogonalLoop=1;jettySize=auto;html=1;" edge="1" parent="1" source="WK78Aa1rv5Dl_eeuBbqh-6" target="WK78Aa1rv5Dl_eeuBbqh-8">
          <mxGeometry relative="1" as="geometry" />
        </mxCell>
        <mxCell id="WK78Aa1rv5Dl_eeuBbqh-17" style="edgeStyle=orthogonalEdgeStyle;rounded=0;orthogonalLoop=1;jettySize=auto;html=1;exitX=1;exitY=0.5;exitDx=0;exitDy=0;entryX=0;entryY=0.5;entryDx=0;entryDy=0;" edge="1" parent="1" source="WK78Aa1rv5Dl_eeuBbqh-6" target="WK78Aa1rv5Dl_eeuBbqh-9">
          <mxGeometry relative="1" as="geometry" />
        </mxCell>
        <mxCell id="WK78Aa1rv5Dl_eeuBbqh-6" value="home.js" style="html=1;whiteSpace=wrap;" vertex="1" parent="1">
          <mxGeometry x="180" y="440" width="110" height="50" as="geometry" />
        </mxCell>
        <mxCell id="WK78Aa1rv5Dl_eeuBbqh-7" value="home.html" style="html=1;whiteSpace=wrap;" vertex="1" parent="1">
          <mxGeometry x="180" y="550" width="110" height="50" as="geometry" />
        </mxCell>
        <mxCell id="WK78Aa1rv5Dl_eeuBbqh-8" value="store.js" style="html=1;whiteSpace=wrap;" vertex="1" parent="1">
          <mxGeometry x="370" y="440" width="110" height="50" as="geometry" />
        </mxCell>
        <mxCell id="WK78Aa1rv5Dl_eeuBbqh-9" value="engine.js" style="html=1;whiteSpace=wrap;" vertex="1" parent="1">
          <mxGeometry x="370" y="550" width="110" height="50" as="geometry" />
        </mxCell>
      </root>
    </mxGraphModel>
  </diagram>
</mxfile>
